<?xml version="1.0" encoding="iso-8859-1"?>
<!-- Generator: Adobe Illustrator 17.1.0, SVG Export Plug-In . SVG Version: 6.00 Build 0)  -->
<!DOCTYPE svg PUBLIC "-//W3C//DTD SVG 1.1//EN" "http://www.w3.org/Graphics/SVG/1.1/DTD/svg11.dtd">
<svg version="1.1" id="Capa_1" xmlns="http://www.w3.org/2000/svg" xmlns:xlink="http://www.w3.org/1999/xlink" x="0px" y="0px"
	 viewBox="0 0 384.155 384.155" style="enable-background:new 0 0 384.155 384.155;" xml:space="preserve">
<g>
	<path d="M351.223,32.915C329.998,11.689,301.777,0,271.76,0c-30.017,0-58.238,11.689-79.462,32.915
		c-21.226,21.225-32.915,49.446-32.915,79.463c0,30.017,11.689,58.237,32.915,79.462c21.225,21.225,49.445,32.915,79.462,32.915
		c30.017,0,58.237-11.689,79.462-32.915c21.225-21.225,32.915-49.445,32.915-79.462C384.137,82.36,372.447,54.14,351.223,32.915z
		 M337.08,177.697c-17.447,17.448-40.645,27.057-65.32,27.057c-24.675,0-47.873-9.609-65.321-27.057
		c-17.448-17.447-27.057-40.645-27.057-65.32c0-24.675,9.609-47.873,27.057-65.321C223.887,29.609,247.085,20,271.76,20
		c24.675,0,47.873,9.609,65.32,27.057c17.448,17.447,27.057,40.645,27.057,65.32C364.137,137.052,354.528,160.25,337.08,177.697z"/>
	<path d="M214.893,224.617c-0.189-0.077-19.089-7.869-33.296-22.076c-14.101-14.102-22.002-33.119-22.076-33.296
		c-3.502-8.603-10.413-13.738-18.486-13.738c-5.809,0-11.478,2.771-15.961,7.803L6.979,295.845
		c-9.698,10.885-9.202,28.127,1.106,38.437l0.055,0.055c-3.175,4.809-4.883,10.44-4.883,16.336c0,7.943,3.093,15.411,8.71,21.027
		c5.616,5.617,13.083,8.71,21.027,8.71c5.895,0,11.527-1.708,16.336-4.883l0.524,0.524c5.15,5.15,12.378,8.104,19.83,8.104
		c6.935,0,13.543-2.485,18.607-6.998l132.535-118.093c5.961-5.312,8.71-12.25,7.542-19.034S222.288,227.627,214.893,224.617z
		 M32.995,365.41c-3.937,0-7.637-1.533-10.42-4.316s-4.316-6.484-4.316-10.42c0-1.823,0.343-3.591,0.973-5.246l19.01,19.01
		C36.586,365.067,34.819,365.41,32.995,365.41z M207.522,244.131L74.987,362.225c-1.397,1.245-3.28,1.93-5.303,1.93
		c-2.187,0-4.26-0.819-5.687-2.247L22.228,320.14c-2.848-2.848-2.996-7.983-0.316-10.99l118.094-132.535
		c0.226-0.253,0.434-0.458,0.617-0.619c0.119,0.213,0.246,0.475,0.375,0.79c0.376,0.926,9.424,22.864,26.457,39.897
		c17.033,17.033,38.972,26.081,39.897,26.457c0.315,0.128,0.577,0.256,0.79,0.375C207.98,243.697,207.776,243.905,207.522,244.131z"
		/>
	<path d="M135.015,240.418c-3.486-3.486-8.131-5.406-13.082-5.406c-4.951,0-9.596,1.92-13.082,5.406l-22.567,22.566
		c-3.486,3.486-5.406,8.131-5.406,13.082c0,4.95,1.92,9.596,5.406,13.081l8.704,8.705c3.486,3.485,8.132,5.405,13.082,5.405
		c4.95,0,9.596-1.92,13.082-5.405l22.567-22.567c7.212-7.213,7.212-18.95,0-26.163L135.015,240.418z M133.112,264.679
		l-22.567,22.567c-0.88,0.88-1.929,1.012-2.475,1.012s-1.595-0.132-2.475-1.012l-8.704-8.705c-0.88-0.88-1.012-1.928-1.012-2.474
		c0-0.546,0.132-1.595,1.012-2.475l22.567-22.567c0.88-0.88,1.928-1.012,2.475-1.012c0.546,0,1.594,0.132,2.475,1.012l8.704,8.704
		C134.454,261.07,134.454,263.337,133.112,264.679z"/>
</g>
<g>
</g>
<g>
</g>
<g>
</g>
<g>
</g>
<g>
</g>
<g>
</g>
<g>
</g>
<g>
</g>
<g>
</g>
<g>
</g>
<g>
</g>
<g>
</g>
<g>
</g>
<g>
</g>
<g>
</g>
</svg>
